<svg width="60" height="60" viewBox="0 0 60 60" fill="none" xmlns="http://www.w3.org/2000/svg">
<mask id="mask0_844_9443" style="mask-type:alpha" maskUnits="userSpaceOnUse" x="0" y="0" width="60" height="60">
<path fillRule="evenodd" clipRule="evenodd" d="M30.0003 59.1432C46.3964 59.1432 59.6881 45.9036 59.6881 29.5716C59.6881 13.2397 46.3964 0 30.0003 0C13.6042 0 0.3125 13.2397 0.3125 29.5716C0.3125 45.9036 13.6042 59.1432 30.0003 59.1432ZM45.5468 29.5329C45.5468 38.0518 38.6409 44.9577 30.122 44.9577C21.6031 44.9577 14.6972 38.0518 14.6972 29.5329C14.6972 21.014 21.6031 14.1081 30.122 14.1081C38.6409 14.1081 45.5468 21.014 45.5468 29.5329Z" fill="#D9D9D9"/>
</mask>
<g mask="url(#mask0_844_9443)">
<path d="M30.0003 59.1432C46.3964 59.1432 59.6881 45.9036 59.6881 29.5716C59.6881 13.2397 46.3964 0 30.0003 0C13.6042 0 0.3125 13.2397 0.3125 29.5716C0.3125 45.9036 13.6042 59.1432 30.0003 59.1432Z" fill="url(#paint0_linear_844_9443)"/>
<path d="M43.9697 28.7942C44.1827 29.1123 46.8771 32.9768 51.8066 32.9851L43.9697 28.7942Z" fill="url(#paint1_radial_844_9443)"/>
<path style="mix-blend-mode:multiply" d="M57.3561 20.0832C54.5206 19.5299 51.3228 30.9768 47.0019 30.5065C46.0475 30.4014 45.3255 29.7458 44.8608 29.2036C44.9419 29.8663 44.9549 30.5355 44.8995 31.2009C44.7695 32.7887 44.3711 33.1732 44.5897 33.8786C44.8525 34.7085 45.7238 35.1152 47.331 35.815C48.6312 36.3683 49.6464 36.8192 51.1347 36.9907C53.901 37.3116 56.6673 36.5204 58.0504 35.2673C58.6037 34.7749 59.2206 33.9423 59.3948 33.2783C59.4623 33.0046 59.5158 32.7276 59.5553 32.4485C59.5553 32.3821 59.5912 32.1718 59.6161 31.7071C59.6466 31.1926 59.6466 30.7998 59.6466 30.7085C59.6466 30.1552 59.6466 28.5923 59.6327 28.1303C59.6161 27.7707 59.3395 20.4621 57.3561 20.0832Z" fill="url(#paint2_radial_844_9443)"/>
<path d="M44.8714 30.0944C47.6681 33.3447 51.6405 34.5923 54.6447 33.3365C58.1219 31.8897 59.0043 27.3032 59.0707 26.974C59.192 26.3173 59.244 25.6498 59.2256 24.9823C59.1454 19.6046 56.0444 15.1204 54.6419 13.1177C53.1293 10.9706 51.3565 9.01933 49.3638 7.30845C47.5436 5.76763 42.4204 1.5435 34.4259 0.392728C29.1673 -0.32648 23.8121 0.399338 18.9347 2.49234C13.6797 4.63446 9.16201 8.26013 5.9331 12.9268C4.03778 15.6309 2.59953 18.6279 1.67578 21.7983" fill="url(#paint3_linear_844_9443)"/>
</g>
<defs>
<linearGradient id="paint0_linear_844_9443" x1="52.3657" y1="3.6598" x2="44.5261" y2="12.7415" gradientUnits="userSpaceOnUse">
<stop stop-color="#24B1E6"/>
<stop offset="1" stop-color="#026AA1"/>
</linearGradient>
<radialGradient id="paint1_radial_844_9443" cx="0" cy="0" r="1" gradientUnits="userSpaceOnUse" gradientTransform="translate(47.8896 30.891) scale(3.1425 3.1425)">
<stop stop-color="#24B1E6"/>
<stop offset="0.04" stop-color="#1EA5DA"/>
<stop offset="0.12" stop-color="#148FC5"/>
<stop offset="0.22" stop-color="#0C7EB5"/>
<stop offset="0.34" stop-color="#0673A9"/>
<stop offset="0.52" stop-color="#036CA3"/>
<stop offset="1" stop-color="#026AA1"/>
</radialGradient>
<radialGradient id="paint2_radial_844_9443" cx="0" cy="0" r="1" gradientUnits="userSpaceOnUse" gradientTransform="translate(52.0515 27.9826) rotate(16.2202) scale(10.0982 12.6158)">
<stop stop-color="#214192"/>
<stop offset="0.16" stop-color="#4963A6"/>
<stop offset="0.58" stop-color="#AAB6D5"/>
<stop offset="0.86" stop-color="#E7EBF3"/>
<stop offset="1" stop-color="white"/>
</radialGradient>
<linearGradient id="paint3_linear_844_9443" x1="47.5853" y1="2.25865" x2="33.0824" y2="20.1647" gradientUnits="userSpaceOnUse">
<stop stop-color="#24B1E6"/>
<stop offset="1" stop-color="#026AA1"/>
</linearGradient>
</defs>
</svg>
