<svg width="170" height="51" viewBox="0 0 170 51" fill="none" xmlns="http://www.w3.org/2000/svg">
<path d="M49.0088 16.6259H33.2865C28.4591 16.6419 23.8174 14.7665 20.356 11.4015C20.2932 11.3384 20.2133 11.295 20.1261 11.2767C20.039 11.2584 19.9484 11.2659 19.8655 11.2983C19.7825 11.3306 19.7108 11.3865 19.6591 11.4591C19.6075 11.5316 19.5781 11.6176 19.5746 11.7066V29.7156C19.5746 30.6531 18.388 31.1226 17.7099 30.4598L2.71482 16.0715C-3.08084 10.5081 1.02816 0.995051 9.22412 0.995051H29.1487C32.368 0.985467 35.4672 2.21665 37.8023 4.43278L49.4445 15.6206C49.5319 15.7036 49.5918 15.8113 49.6162 15.9294C49.6405 16.0474 49.6281 16.17 49.5807 16.2808C49.5332 16.3916 49.453 16.4852 49.3508 16.549C49.2485 16.6128 49.1292 16.6438 49.0088 16.6377" fill="url(#paint0_linear_2999_178)"/>
<path d="M40.4077 50.62H20.4848C17.263 50.6298 14.1615 49.3967 11.8261 47.1772L0.183954 36.0029C0.096395 35.9198 0.0364127 35.8119 0.0120981 35.6937C-0.0122165 35.5755 0.000306245 35.4527 0.0479776 35.3418C0.095649 35.231 0.176175 35.1374 0.278693 35.0737C0.381212 35.0101 0.50079 34.9794 0.621297 34.9858H16.3182C21.1435 34.9706 25.7827 36.846 29.2419 40.2102C29.3047 40.2732 29.3844 40.3165 29.4714 40.3349C29.5584 40.3533 29.6489 40.3459 29.7317 40.3138C29.8146 40.2816 29.8863 40.2259 29.9381 40.1537C29.9899 40.0814 30.0195 39.9956 30.0233 39.9067L30.0505 21.8926C30.0505 20.9552 31.2371 20.4873 31.9151 21.1501L46.3237 34.9858L46.9001 35.5401C52.6957 41.1035 48.5952 50.6149 40.3942 50.6149" fill="white"/>
<path d="M115.354 21.1519C113.935 20.3464 112.331 19.923 110.699 19.923C109.067 19.923 107.463 20.3464 106.043 21.1519C104.684 21.9411 103.548 23.0643 102.744 24.415C101.939 25.8091 101.516 27.3905 101.516 29.0003C101.516 30.6102 101.939 32.1916 102.744 33.5857C103.542 34.942 104.669 36.075 106.021 36.8793C107.438 37.6976 109.046 38.1284 110.683 38.1284C112.319 38.1284 113.927 37.6976 115.344 36.8793C116.697 36.0758 117.821 34.9389 118.609 33.5772C119.416 32.1842 119.834 30.6 119.819 28.9902C119.835 27.3904 119.417 25.8164 118.609 24.4353C117.826 23.0794 116.707 21.9481 115.36 21.1502L115.354 21.1519ZM115.06 31.5769C114.62 32.3454 113.989 32.9875 113.229 33.4416C112.455 33.8934 111.575 34.1316 110.678 34.1316C109.782 34.1316 108.902 33.8934 108.128 33.4416C107.364 32.9819 106.728 32.3371 106.279 31.5668C105.835 30.793 105.601 29.9163 105.601 29.0241C105.601 28.1318 105.835 27.2552 106.279 26.4814C106.727 25.7102 107.364 25.0647 108.128 24.6049C108.903 24.1542 109.782 23.9167 110.678 23.9167C111.574 23.9167 112.454 24.1542 113.229 24.6049C113.988 25.0603 114.618 25.7022 115.06 26.4695C115.497 27.2494 115.727 28.1288 115.727 29.0232C115.727 29.9176 115.497 30.797 115.06 31.5769V31.5769Z" fill="white"/>
<path d="M136.542 21.1519C134.438 19.9227 131.933 19.573 129.573 20.1789C127.212 20.7847 125.186 22.2972 123.934 24.3879C123.11 25.7835 122.684 27.3782 122.703 28.9987V44.4413H126.786V36.4233C127.075 36.6432 127.376 36.8458 127.688 37.0302C128.972 37.7843 130.437 38.1757 131.926 38.1625C133.527 38.1857 135.105 37.7759 136.492 36.9766C137.88 36.1773 139.025 35.018 139.808 33.6213C140.602 32.2104 141.011 30.6157 140.995 28.997C141.017 27.3971 140.603 25.8214 139.798 24.4388C139.015 23.0827 137.896 21.9509 136.549 21.1519H136.542ZM136.238 31.599C135.802 32.3733 135.173 33.0211 134.411 33.4789C133.637 33.9308 132.757 34.1689 131.861 34.1689C130.965 34.1689 130.084 33.9308 129.31 33.4789C128.544 33.0172 127.909 32.3672 127.464 31.5905C127.009 30.8136 126.774 29.9266 126.786 29.0258C126.775 28.132 127.009 27.2523 127.464 26.4831C127.914 25.7123 128.55 25.0669 129.314 24.6066C130.088 24.1559 130.968 23.9185 131.864 23.9185C132.76 23.9185 133.64 24.1559 134.415 24.6066C135.174 25.0616 135.803 25.7036 136.244 26.4712C136.697 27.2455 136.931 28.1285 136.922 29.0258C136.93 29.9287 136.696 30.8173 136.244 31.599H136.238Z" fill="white"/>
<path d="M169.583 20.5891H165.498V38.1235H169.583V20.5891Z" fill="white"/>
<path d="M169.668 14.6731C169.463 14.3098 169.172 14.0024 168.821 13.7781C168.44 13.5519 168.007 13.4305 167.564 13.4264C167.122 13.4222 166.686 13.5354 166.302 13.7544C165.919 13.9725 165.602 14.2899 165.385 14.6731C165.168 15.0619 165.055 15.4995 165.055 15.9445C165.055 16.3895 165.168 16.8271 165.385 17.2158C165.602 17.5991 165.919 17.9165 166.302 18.1346C166.679 18.3512 167.107 18.4646 167.543 18.4635C167.995 18.4699 168.439 18.347 168.824 18.1092C169.374 17.7497 169.767 17.1951 169.925 16.5571C170.082 15.9192 169.991 15.2454 169.672 14.6715L169.668 14.6731Z" fill="white"/>
<path d="M158.089 13.4271L158.068 21.6146C157.775 21.3905 157.467 21.1855 157.146 21.001C155.858 20.2582 154.395 19.8737 152.908 19.8873C151.292 19.8686 149.701 20.2874 148.303 21.0993C146.952 21.8872 145.833 23.0182 145.06 24.3777C144.262 25.7942 143.853 27.3966 143.873 29.0223C143.853 30.6226 144.272 32.1979 145.084 33.5771C145.872 34.9368 146.995 36.0724 148.345 36.8759C149.755 37.7117 151.368 38.1433 153.007 38.1235C154.608 38.1469 156.186 37.7447 157.58 36.9582C158.975 36.1716 160.135 35.0288 160.943 33.6466C161.765 32.2454 162.191 30.6469 162.174 29.0223V13.4271H158.089ZM157.411 31.5752C156.969 32.346 156.335 32.9886 155.57 33.4398C154.795 33.9058 153.904 34.1454 153 34.1315C152.104 34.146 151.223 33.9068 150.457 33.4415C149.698 32.9874 149.068 32.3452 148.628 31.5769C148.175 30.8031 147.941 29.9207 147.95 29.024C147.942 28.1205 148.176 27.2314 148.628 26.4491C149.065 25.6756 149.694 25.028 150.454 24.5692C151.22 24.1045 152.101 23.8659 152.997 23.881C153.901 23.8671 154.792 24.1061 155.568 24.5709C156.334 25.0255 156.967 25.6724 157.406 26.4474C157.858 27.2302 158.092 28.12 158.084 29.024C158.094 29.9208 157.86 30.8035 157.406 31.5769L157.411 31.5752Z" fill="white"/>
<path d="M94.8231 21.4366C93.6094 20.6891 92.1533 20.3094 90.5005 20.3094C88.7962 20.2884 87.1294 20.8096 85.7406 21.7977V13.8781H81.6553V38.1896H85.7406V29.3749C85.7222 28.4473 85.9269 27.5288 86.3373 26.6966C86.7012 25.9709 87.2577 25.3593 87.946 24.9286C88.6358 24.5004 89.4345 24.2803 90.2463 24.2946C91.1989 24.2946 91.9566 24.5031 92.5635 24.9286C93.1858 25.3625 93.6724 25.9637 93.9671 26.6627C94.3108 27.4689 94.484 28.3375 94.4756 29.2139V38.1896H98.5609V29.0613C98.5609 27.3662 98.2473 25.8406 97.6285 24.5642C97.0198 23.2716 96.0472 22.1847 94.8299 21.4366H94.8231Z" fill="white"/>
<path d="M76.1309 25.5948C75.3511 25.0966 74.5055 24.7098 73.6187 24.4455C72.7711 24.1896 71.9117 23.9692 71.076 23.7946C70.1589 23.5861 69.2792 23.3522 68.4621 23.1013C67.863 22.9364 67.3121 22.6307 66.8551 22.2097C66.55 21.9096 66.4008 21.4469 66.4008 20.7908C66.3931 20.2922 66.5524 19.8053 66.8534 19.4076C67.2019 18.9454 67.6629 18.5801 68.1926 18.3465C68.7891 18.074 69.4387 17.9374 70.0945 17.9464C71.0647 17.92 72.0236 18.1591 72.8677 18.638C73.625 19.0918 74.2186 19.7745 74.5629 20.5874L75.0341 21.6367L78.6464 19.728L78.265 18.8126C77.618 17.2256 76.457 15.9016 74.968 15.0528C73.5056 14.2216 71.8495 13.7917 70.1674 13.8069C68.8036 13.7942 67.4555 14.0989 66.2296 14.6969C65.0624 15.2608 64.0579 16.1125 63.3106 17.1717C62.5561 18.2506 62.1589 19.5389 62.1749 20.8553C62.1749 22.1283 62.4325 23.2098 62.9411 24.0658C63.4362 24.9015 64.1259 25.6052 64.9515 26.1169C65.7407 26.6079 66.5918 26.9916 67.4823 27.2578C68.3299 27.5137 69.1893 27.7341 70.0437 27.9138C70.9573 28.1002 71.8252 28.3172 72.6287 28.5562C73.2112 28.7119 73.7463 29.0089 74.1866 29.4208C74.4832 29.7174 74.6324 30.209 74.6324 30.8803C74.6553 31.4619 74.4848 32.0348 74.1476 32.5093C73.7823 32.9931 73.2883 33.3644 72.722 33.5806C72.0003 33.8629 71.2304 34.0011 70.4556 33.9874C69.3807 34.0151 68.3172 33.7615 67.3704 33.2517C66.5692 32.8111 65.9354 32.1188 65.5668 31.282L65.1074 30.2649L61.4426 32.0974L61.8392 33.0297C62.5201 34.659 63.7388 36.0057 65.2922 36.8454C66.8747 37.7048 68.6515 38.1432 70.4522 38.1185C71.897 38.1383 73.3282 37.8372 74.6425 37.237C75.8619 36.6818 76.9141 35.8161 77.6938 34.7265C78.4793 33.5978 78.8892 32.2502 78.8651 30.8752C78.8651 29.6072 78.6075 28.5223 78.1006 27.6544C77.6169 26.8204 76.9425 26.1129 76.1326 25.5898" fill="white"/>
<defs>
<linearGradient id="paint0_linear_2999_178" x1="0.0326443" y1="16.0339" x2="49.8229" y2="16.0339" gradientUnits="userSpaceOnUse">
<stop stop-color="#FDD400"/>
<stop offset="1" stop-color="#FFC10D"/>
</linearGradient>
</defs>
</svg>
